<?xml version="1.0" encoding="UTF-8" standalone="no"?>
<svg
   width="730"
   height="512"
   viewBox="0 0 730 512"
   fill="none"
   version="1.1"
   id="svg24"
   xmlns="http://www.w3.org/2000/svg"
   xmlns:svg="http://www.w3.org/2000/svg">
  <g
     clip-path="url(#clip0_676_36)"
     id="g20">
    <rect
       width="730"
       height="512"
       fill="white"
       id="rect1" />
    <rect
       x="291"
       y="405"
       width="151"
       height="107"
       fill="#FE5154"
       id="rect2" />
    <rect
       x="193"
       y="487"
       width="343"
       height="25"
       fill="#FE5154"
       id="rect3" />
    <rect
       x="164"
       y="389"
       width="135"
       height="106"
       rx="12"
       fill="white"
       id="rect4" />
    <rect
       x="430"
       y="389"
       width="135"
       height="106"
       rx="12"
       fill="white"
       id="rect5" />
    <rect
       x="41"
       width="647"
       height="409"
       rx="30"
       fill="#FE5154"
       id="rect6" />
    <rect
       x="94"
       y="49"
       width="537"
       height="315"
       rx="14"
       fill="white"
       id="rect7" />
    <path
       d="M94 59C94 53.4772 98.4772 49 104 49H621C626.523 49 631 53.4772 631 59V123H94V59Z"
       fill="#FCC0BB"
       id="path7" />
    <rect
       x="541"
       y="57"
       width="54"
       height="55"
       rx="27"
       fill="#DA6670"
       id="rect8" />
    <path
       d="M583.938 88H581.812C581.531 88 581.26 88.1054 581.061 88.2929C580.862 88.4804 580.75 88.7348 580.75 89V94H555.25V89C555.25 88.7348 555.138 88.4804 554.939 88.2929C554.74 88.1054 554.469 88 554.188 88H552.062C551.781 88 551.51 88.1054 551.311 88.2929C551.112 88.4804 551 88.7348 551 89V97C551 97.2652 551.112 97.5196 551.311 97.7071C551.51 97.8946 551.781 98 552.062 98H583.938C584.219 98 584.49 97.8946 584.689 97.7071C584.888 97.5196 585 97.2652 585 97V89C585 88.7348 584.888 88.4804 584.689 88.2929C584.49 88.1054 584.219 88 583.938 88Z"
       fill="white"
       id="path8" />
    <path
       d="M567.605 90.8456C567.71 90.9446 567.852 91 567.999 91C568.146 91 568.287 90.9446 568.393 90.8456L576.775 82.7183C576.921 82.5623 577.001 82.3598 577 82.1502C577 81.921 576.905 81.7013 576.736 81.5392C576.568 81.3772 576.339 81.2861 576.1 81.2861H570.25V65.08C570.25 64.7936 570.131 64.5189 569.92 64.3163C569.71 64.1138 569.423 64 569.125 64H566.875C566.577 64 566.29 64.1138 566.08 64.3163C565.869 64.5189 565.75 64.7936 565.75 65.08V81.2807H559.9C559.661 81.2807 559.432 81.3718 559.264 81.5338C559.095 81.6958 559 81.9156 559 82.1448C558.999 82.3544 559.079 82.5569 559.225 82.7129L567.605 90.8456Z"
       fill="white"
       id="path9" />
    <rect
       x="107"
       y="66"
       width="417"
       height="40"
       rx="20"
       fill="white"
       id="rect9" />
    <g
       filter="url(#filter0_d_676_36)"
       id="g10">
      <rect
         x="232"
         y="117"
         width="371.766"
         height="74.97"
         rx="4"
         fill="#F3F3F3"
         id="rect10" />
    </g>
    <path
       fill-rule="evenodd"
       clip-rule="evenodd"
       d="M271.172 146.542C271.172 145.982 271.051 145.312 270.496 145.312C270.39 145.318 270.288 145.351 270.199 145.409C270.11 145.466 270.037 145.546 269.989 145.64C269.535 147.238 269.697 148.948 270.445 150.431C270.854 149.172 271.098 147.865 271.172 146.542Z"
       fill="#B40000"
       id="path10" />
    <path
       fill-rule="evenodd"
       clip-rule="evenodd"
       d="M271.318 154.276C271.085 154.913 270.832 155.564 270.562 156.215C270.358 156.708 270.123 157.226 269.867 157.749C270.348 157.603 270.83 157.465 271.304 157.34C271.964 157.166 272.615 157.012 273.245 156.88L273.296 156.868C272.816 156.341 272.366 155.787 271.95 155.208C271.734 154.908 271.523 154.598 271.318 154.276Z"
       fill="#B40000"
       id="path11" />
    <path
       fill-rule="evenodd"
       clip-rule="evenodd"
       d="M279.55 157.5C279.032 157.411 278.506 157.371 277.981 157.379C277.192 157.381 276.405 157.442 275.626 157.561C276.555 158.325 277.642 158.875 278.808 159.172C278.973 159.213 279.141 159.234 279.311 159.235C279.906 159.235 280.34 158.962 280.422 158.542C280.554 157.858 280.022 157.598 279.55 157.5Z"
       fill="#B40000"
       id="path12" />
    <path
       fill-rule="evenodd"
       clip-rule="evenodd"
       d="M282.785 138.99H259.947C258.335 138.99 256.79 139.63 255.651 140.769C254.511 141.909 253.871 143.454 253.871 145.065V165.717C253.871 167.328 254.511 168.874 255.651 170.013C256.79 171.152 258.335 171.793 259.947 171.793H282.785C284.396 171.793 285.942 171.152 287.081 170.013C288.221 168.874 288.861 167.328 288.861 165.717V145.065C288.861 143.454 288.221 141.909 287.081 140.769C285.942 139.63 284.396 138.99 282.785 138.99ZM282.844 159.429C282.619 159.949 282.23 160.38 281.735 160.656C281.241 160.932 280.669 161.038 280.109 160.956C277.947 160.871 275.885 160.02 274.292 158.554C273.499 158.703 272.654 158.895 271.774 159.128C270.959 159.344 270.142 159.588 269.343 159.856C267.071 163.835 264.894 165.852 262.869 165.852C262.167 165.869 261.483 165.62 260.957 165.154C260.682 164.904 260.475 164.588 260.357 164.235C260.239 163.883 260.213 163.505 260.282 163.14C260.671 161.064 264.195 159.317 266.386 158.419C266.938 157.402 267.438 156.357 267.883 155.288C268.398 154.049 268.829 152.916 269.229 151.739C268.651 150.693 268.296 149.539 268.186 148.35C268.076 147.16 268.214 145.961 268.592 144.827C268.789 144.49 269.069 144.209 269.406 144.012C269.743 143.814 270.124 143.707 270.515 143.7C272.28 143.7 273.42 145.188 273.42 147.49C273.34 149.226 273.01 150.942 272.442 152.584C272.749 153.108 273.086 153.626 273.448 154.127C273.928 154.8 274.462 155.433 275.042 156.021C278.661 155.489 281.244 155.841 282.39 157.071C282.673 157.386 282.864 157.771 282.944 158.187C283.024 158.602 282.989 159.032 282.844 159.429Z"
       fill="#B40000"
       id="path13" />
    <path
       fill-rule="evenodd"
       clip-rule="evenodd"
       d="M261.869 163.438C261.848 163.537 261.856 163.639 261.89 163.734C261.924 163.829 261.983 163.913 262.062 163.977C262.165 164.069 262.3 164.118 262.438 164.112C263.282 164.112 264.726 162.619 266.193 160.257C263.701 161.371 262.03 162.591 261.869 163.438Z"
       fill="#B40000"
       id="path14" />
    <path
       d="M570.783 156.485H568.961C568.719 156.485 568.487 156.581 568.316 156.751C568.146 156.922 568.05 157.154 568.05 157.396V167.419H546.181V145.55H556.204C556.446 145.55 556.677 145.454 556.848 145.283C557.019 145.113 557.115 144.881 557.115 144.639V142.817C557.115 142.575 557.019 142.343 556.848 142.172C556.677 142.002 556.446 141.906 556.204 141.906H543.447C543.206 141.906 542.974 142.002 542.803 142.172C542.632 142.343 542.536 142.575 542.536 142.817V170.152C542.536 170.394 542.632 170.626 542.803 170.797C542.974 170.968 543.206 171.064 543.447 171.064H570.783C571.025 171.064 571.257 170.968 571.427 170.797C571.598 170.626 571.694 170.394 571.694 170.152V157.396C571.694 157.154 571.598 156.922 571.427 156.751C571.257 156.581 571.025 156.485 570.783 156.485Z"
       fill="#D31510"
       id="path16" />
    <path
       d="M571.238 141.906H561.446C561.26 141.916 561.085 141.998 560.958 142.133C560.83 142.269 560.759 142.448 560.759 142.634C560.759 142.729 560.778 142.824 560.815 142.911C560.852 142.999 560.906 143.078 560.973 143.145L564.423 146.598L558.006 153.015C557.922 153.099 557.855 153.2 557.809 153.31C557.763 153.421 557.739 153.539 557.739 153.659C557.739 153.779 557.763 153.897 557.808 154.008C557.854 154.118 557.921 154.219 558.006 154.303L559.295 155.593C559.466 155.763 559.698 155.859 559.939 155.859C560.181 155.859 560.412 155.763 560.583 155.593L567.001 149.176L570.451 152.625C570.517 152.693 570.597 152.748 570.686 152.785C570.774 152.822 570.869 152.84 570.965 152.84C571.151 152.84 571.33 152.769 571.466 152.641C571.601 152.514 571.683 152.339 571.694 152.153V142.361C571.694 142.24 571.646 142.124 571.56 142.039C571.475 141.954 571.359 141.906 571.238 141.906Z"
       fill="#D31510"
       id="path17" />
    <g
       filter="url(#filter1_d_676_36)"
       id="g19">
      <path
         d="M394.235 215.889C394.028 215.889 393.827 215.773 393.741 215.578L386.532 199.555L376.708 208.914C376.554 209.061 376.325 209.105 376.124 209.027C375.924 208.948 375.791 208.761 375.791 208.553V165.218C375.791 165.013 375.92 164.826 376.121 164.747C376.321 164.669 376.55 164.71 376.704 164.853L408.937 194.88C409.094 195.027 409.141 195.245 409.059 195.44C408.976 195.631 408.779 195.757 408.561 195.757H395.045L402.254 212.108C402.369 212.367 402.243 212.664 401.971 212.777L394.45 215.848C394.382 215.875 394.31 215.889 394.239 215.889H394.235Z"
         fill="#930000"
         id="path18" />
      <path
         d="M376.328 164.706C376.464 164.706 376.6 164.757 376.704 164.853L408.937 194.88C409.094 195.027 409.141 195.245 409.058 195.44C408.976 195.631 408.779 195.757 408.561 195.757H395.044L402.254 212.108C402.368 212.367 402.243 212.664 401.971 212.777L394.45 215.848C394.382 215.875 394.31 215.889 394.239 215.889C394.031 215.889 393.83 215.773 393.744 215.578L386.535 199.555L376.711 208.914C376.607 209.013 376.471 209.064 376.331 209.064C376.263 209.064 376.192 209.051 376.127 209.027C375.927 208.948 375.794 208.761 375.794 208.553V165.218C375.794 165.013 375.923 164.826 376.124 164.747C376.192 164.72 376.263 164.706 376.331 164.706M376.328 163C376.016 163 375.715 163.058 375.425 163.174C374.559 163.522 374 164.324 374 165.218V208.553C374 209.453 374.562 210.255 375.436 210.6C375.719 210.713 376.02 210.771 376.328 210.771C376.951 210.771 377.535 210.539 377.975 210.119L385.93 202.54L392.097 216.251C392.466 217.066 393.304 217.595 394.239 217.595C394.554 217.595 394.862 217.533 395.152 217.417L402.676 214.347C403.847 213.869 404.399 212.569 403.905 211.45L397.741 197.466H408.564C409.513 197.466 410.362 196.924 410.72 196.088C411.078 195.249 410.871 194.297 410.19 193.662L377.954 163.631C377.517 163.225 376.937 163 376.328 163Z"
         fill="white"
         id="path19" />
    </g>
    <rect
       x="1.5"
       y="250.5"
       width="727"
       height="182"
       rx="18.5"
       fill="white"
       fill-opacity="0.9"
       stroke="#D5D5D5"
       stroke-width="3"
       id="rect19" />
    <path
       d="M96.1008 299.12V301.316C96.1008 301.496 96.0648 301.64 95.9208 301.676C94.7328 302.18 93.0768 302.36 91.0608 302.36C85.0488 302.36 78.8928 298.868 78.8928 290.048C78.8928 282.848 83.8608 277.844 91.5288 277.844C93.9408 277.844 95.3448 278.096 96.1368 278.492C96.2448 278.528 96.3168 278.636 96.3168 278.78V281.192C96.3168 281.408 96.1728 281.408 96.0648 281.372C95.0568 280.832 93.4368 280.544 91.4568 280.544C85.8048 280.544 81.9528 284.216 81.9528 289.976C81.9528 297.5 87.6048 299.624 91.3848 299.624C93.2208 299.624 94.5528 299.48 95.8848 298.976C96.0288 298.94 96.1008 298.94 96.1008 299.12ZM99.05 298.364V276.404C99.05 276.224 99.122 276.188 99.302 276.188H101.822C102.002 276.188 102.038 276.26 102.038 276.404V298.112C102.038 299.516 102.614 299.84 103.478 299.84C103.73 299.84 103.874 299.804 104.198 299.732C104.306 299.732 104.342 299.804 104.342 299.948V301.82C104.342 302 104.306 302.036 104.162 302.108C103.838 302.252 103.262 302.36 102.506 302.36C100.742 302.36 99.05 301.748 99.05 298.364ZM107.194 301.712V284.756C107.194 284.576 107.266 284.504 107.446 284.504H110.002C110.146 284.504 110.218 284.54 110.218 284.72V301.748C110.218 301.928 110.182 302 109.966 302H107.482C107.302 302 107.194 301.928 107.194 301.712ZM108.706 281.048C107.59 281.048 106.906 280.292 106.906 279.212C106.906 278.132 107.662 277.376 108.742 277.376C109.894 277.376 110.542 278.168 110.542 279.212C110.542 280.292 109.822 281.048 108.706 281.048ZM126.44 299.3V301.532C126.44 301.676 126.44 301.748 126.296 301.784C125.108 302.252 123.704 302.36 122.372 302.36C116.504 302.36 113.48 298.184 113.48 293.324C113.48 288.068 117.224 284.144 122.876 284.144C124.712 284.144 125.72 284.36 126.296 284.612C126.44 284.684 126.44 284.756 126.44 284.936V287.204C126.44 287.384 126.332 287.384 126.188 287.348C125.288 286.988 124.352 286.808 122.876 286.808C119.168 286.808 116.54 289.292 116.54 293.216C116.54 297.536 119.528 299.66 122.876 299.66C124.208 299.66 125.324 299.516 126.224 299.156C126.404 299.12 126.44 299.192 126.44 299.3ZM140.472 284.504H143.352C143.532 284.504 143.604 284.648 143.46 284.792C142.452 285.908 137.016 291.164 135.684 292.46C135.648 292.496 135.684 292.568 135.684 292.604C138.024 295.052 141.948 299.12 144.576 301.748C144.684 301.856 144.612 302 144.432 302H141.012C140.832 302 140.76 301.928 140.652 301.82C138.78 299.912 134.244 295.16 132.516 293.288V301.748C132.516 301.928 132.48 302 132.3 302H129.78C129.564 302 129.528 301.928 129.528 301.748V276.404C129.528 276.26 129.564 276.188 129.78 276.188H132.3C132.444 276.188 132.516 276.26 132.516 276.404V292.532C134.208 290.84 139.176 285.692 140.112 284.684C140.256 284.54 140.328 284.504 140.472 284.504ZM161.038 299.66V301.496C161.038 301.64 161.002 301.784 160.822 301.856C159.994 302.216 159.094 302.36 158.122 302.36C155.494 302.36 153.91 301.1 153.91 297.644V287.096H151.462C151.246 287.06 151.21 286.988 151.21 286.808V284.756C151.21 284.576 151.282 284.504 151.462 284.504H153.91C153.946 283.172 154.09 280.688 154.234 279.896C154.27 279.752 154.342 279.68 154.486 279.644L156.934 279.248C157.078 279.212 157.15 279.248 157.15 279.392C157.042 280.652 156.934 282.74 156.934 284.504H160.75C160.894 284.504 160.966 284.576 160.966 284.756V286.88C160.966 287.024 160.894 287.096 160.75 287.096H156.934V297.212C156.934 298.868 157.546 299.804 159.13 299.804C159.67 299.804 160.21 299.732 160.822 299.516C160.93 299.48 161.038 299.48 161.038 299.66ZM166.755 288.788V301.784C166.755 301.964 166.719 302 166.539 302H164.019C163.839 302 163.767 301.928 163.767 301.748V276.404C163.767 276.26 163.803 276.188 163.983 276.188H166.575C166.719 276.188 166.755 276.224 166.755 276.368L166.791 286.232C168.267 284.864 169.995 284.144 172.119 284.144C174.675 284.144 177.987 285.404 177.987 291.092V301.748C177.987 301.928 177.915 302 177.735 302H175.215C175.035 302 174.963 301.928 174.963 301.712V291.416C174.963 288.644 173.775 286.808 171.255 286.808C169.491 286.808 167.907 287.528 166.755 288.788ZM192.14 293.612H184.292C184.256 297.032 186.236 299.732 190.304 299.732C191.888 299.732 193.4 299.444 194.804 298.76C194.912 298.688 194.984 298.76 194.984 298.904V300.956C194.984 301.172 194.912 301.244 194.804 301.316C193.58 301.928 191.996 302.36 189.728 302.36C183.5 302.36 181.268 297.788 181.268 293.396C181.268 288.356 184.22 284.144 189.224 284.144C194.372 284.144 196.244 288.32 196.244 291.38C196.244 292.28 196.172 292.928 196.1 293.252C196.1 293.36 195.992 293.468 195.848 293.468C195.308 293.576 193.724 293.612 192.14 293.612ZM184.328 291.38H191.024C192.788 291.38 193.22 291.344 193.328 291.308C193.364 291.2 193.364 291.02 193.364 290.912C193.364 289.616 192.5 286.628 189.116 286.628C186.128 286.628 184.652 288.968 184.328 291.38ZM214.995 302.36C209.775 302.36 205.779 299.336 205.779 293.288C205.779 288.068 209.667 283.892 216.003 283.892C216.507 283.892 216.939 283.928 217.551 284V276.62C217.551 276.44 217.623 276.368 217.767 276.368H221.691C221.871 276.368 221.871 276.44 221.871 276.584V298.328C221.871 299.048 221.943 299.984 222.015 300.632C222.015 300.812 221.979 300.884 221.799 300.956C219.459 301.964 217.155 302.36 214.995 302.36ZM217.551 298.328V287.78C217.083 287.6 216.507 287.528 215.859 287.528C212.655 287.528 210.243 289.58 210.243 293.072C210.243 296.996 212.583 298.616 215.463 298.616C216.183 298.616 216.903 298.544 217.551 298.328ZM233.534 283.892C239.078 283.892 242.102 288.104 242.102 293.036C242.102 298.616 238.538 302.36 233.462 302.36C227.45 302.36 224.786 297.716 224.786 293.144C224.786 288.032 228.134 283.892 233.534 283.892ZM233.318 287.528C230.906 287.528 229.178 289.652 229.178 293.072C229.178 296.384 230.798 298.688 233.534 298.688C235.766 298.688 237.674 296.852 237.674 293.144C237.674 290.156 236.378 287.528 233.318 287.528ZM263.692 302H259.732C259.48 302 259.408 301.892 259.336 301.676C257.248 293.648 256.636 290.444 256.276 288.68H256.24C255.412 292.28 254.512 295.736 252.82 301.712C252.748 301.928 252.64 302 252.424 302H248.5C248.14 302 248.104 301.928 248.032 301.712L243.352 284.54C243.28 284.36 243.388 284.252 243.604 284.252H247.564C247.744 284.252 247.816 284.288 247.852 284.468C250.012 292.928 250.552 296.348 250.804 297.788H250.876C251.164 296.528 251.776 293.252 254.152 284.54C254.188 284.324 254.224 284.252 254.476 284.252H258.616C258.796 284.252 258.868 284.324 258.904 284.468C261.136 293.252 261.64 296.456 261.928 297.896H262C262.432 295.736 262.972 292.136 265.06 284.468C265.096 284.324 265.204 284.252 265.384 284.252H269.02C269.164 284.252 269.308 284.324 269.236 284.504L264.088 301.712C263.98 301.928 263.944 302 263.692 302ZM271.439 301.712V288.392C271.439 287.168 271.367 285.224 271.295 284.504C271.295 284.324 271.331 284.252 271.547 284.252H274.823C275.075 284.252 275.183 284.324 275.255 284.504C275.363 284.828 275.435 285.296 275.507 285.872C277.055 284.576 278.783 283.892 280.727 283.892C283.427 283.892 286.739 285.26 286.739 291.02V301.676C286.739 301.928 286.631 302 286.451 302H282.707C282.491 302 282.383 301.892 282.383 301.676V291.416C282.383 289.04 281.375 287.672 279.287 287.672C277.847 287.672 276.659 288.212 275.795 289.148V301.712C275.795 301.892 275.687 302 275.507 302H271.727C271.511 302 271.439 301.892 271.439 301.712ZM290.727 297.716V276.656C290.727 276.476 290.835 276.368 291.051 276.368H294.759C294.975 276.368 295.083 276.476 295.083 276.656V297.32C295.083 298.436 295.479 298.796 296.343 298.796C296.631 298.796 296.703 298.796 297.027 298.76C297.135 298.724 297.171 298.796 297.171 298.976V301.676C297.171 301.928 297.135 301.964 296.955 302.072C296.559 302.252 295.911 302.36 294.903 302.36C292.599 302.36 290.727 301.496 290.727 297.716ZM307.347 283.892C312.891 283.892 315.915 288.104 315.915 293.036C315.915 298.616 312.351 302.36 307.275 302.36C301.263 302.36 298.599 297.716 298.599 293.144C298.599 288.032 301.947 283.892 307.347 283.892ZM307.131 287.528C304.719 287.528 302.991 289.652 302.991 293.072C302.991 296.384 304.611 298.688 307.347 298.688C309.579 298.688 311.487 296.852 311.487 293.144C311.487 290.156 310.191 287.528 307.131 287.528ZM328.04 298.508V294.08C327.5 294.008 326.888 293.972 326.06 293.972C323.216 293.972 321.956 294.908 321.956 296.456C321.956 297.788 322.892 298.94 325.484 298.94C326.42 298.94 327.248 298.832 328.04 298.508ZM332.252 291.02V298.328C332.252 299.12 332.252 299.84 332.324 300.596C332.324 300.668 332.324 300.704 332.252 300.74C329.3 302 327.212 302.36 324.764 302.36C320.84 302.36 317.708 300.524 317.708 296.456C317.708 292.64 321.128 290.732 325.808 290.732C326.888 290.732 327.716 290.768 328.04 290.804V290.372C328.04 289.544 327.572 287.672 324.404 287.672C322.604 287.672 321.02 288.032 319.688 288.68C319.58 288.716 319.4 288.68 319.4 288.464V285.332C319.4 285.152 319.436 285.08 319.616 284.972C321.164 284.252 323.144 283.892 325.088 283.892C330.092 283.892 332.252 287.024 332.252 291.02ZM344.211 302.36C338.991 302.36 334.995 299.336 334.995 293.288C334.995 288.068 338.883 283.892 345.219 283.892C345.723 283.892 346.155 283.928 346.767 284V276.62C346.767 276.44 346.839 276.368 346.983 276.368H350.907C351.087 276.368 351.087 276.44 351.087 276.584V298.328C351.087 299.048 351.159 299.984 351.231 300.632C351.231 300.812 351.195 300.884 351.015 300.956C348.675 301.964 346.371 302.36 344.211 302.36ZM346.767 298.328V287.78C346.299 287.6 345.723 287.528 345.075 287.528C341.871 287.528 339.459 289.58 339.459 293.072C339.459 296.996 341.799 298.616 344.679 298.616C345.399 298.616 346.119 298.544 346.767 298.328ZM363.162 301.712V284.756C363.162 284.576 363.234 284.504 363.414 284.504H365.97C366.114 284.504 366.186 284.54 366.186 284.72V301.748C366.186 301.928 366.15 302 365.934 302H363.45C363.27 302 363.162 301.928 363.162 301.712ZM364.674 281.048C363.558 281.048 362.874 280.292 362.874 279.212C362.874 278.132 363.63 277.376 364.71 277.376C365.862 277.376 366.51 278.168 366.51 279.212C366.51 280.292 365.79 281.048 364.674 281.048ZM382.408 299.3V301.532C382.408 301.676 382.408 301.748 382.264 301.784C381.076 302.252 379.672 302.36 378.34 302.36C372.472 302.36 369.448 298.184 369.448 293.324C369.448 288.068 373.192 284.144 378.844 284.144C380.68 284.144 381.688 284.36 382.264 284.612C382.408 284.684 382.408 284.756 382.408 284.936V287.204C382.408 287.384 382.3 287.384 382.156 287.348C381.256 286.988 380.32 286.808 378.844 286.808C375.136 286.808 372.508 289.292 372.508 293.216C372.508 297.536 375.496 299.66 378.844 299.66C380.176 299.66 381.292 299.516 382.192 299.156C382.372 299.12 382.408 299.192 382.408 299.3ZM392.305 284.144C397.381 284.144 400.513 288.032 400.513 293.216C400.513 298.688 397.129 302.36 392.305 302.36C386.509 302.36 384.025 297.68 384.025 293.252C384.025 288.176 387.265 284.144 392.305 284.144ZM392.161 286.736C389.137 286.736 387.049 289.328 387.049 293.18C387.049 296.852 388.957 299.768 392.377 299.768C394.933 299.768 397.453 297.752 397.453 293.288C397.453 289.94 395.905 286.736 392.161 286.736ZM403.73 301.748V288.572C403.73 287.348 403.658 285.332 403.586 284.72C403.586 284.576 403.622 284.504 403.802 284.504H406.034C406.214 284.504 406.286 284.576 406.358 284.72C406.466 285.044 406.502 285.728 406.574 286.52C408.158 284.936 409.994 284.144 412.082 284.144C414.638 284.144 417.95 285.404 417.95 291.092V301.748C417.95 301.928 417.878 302 417.698 302H415.178C414.998 302 414.926 301.928 414.926 301.712V291.38C414.926 288.644 413.738 286.808 411.218 286.808C409.382 286.808 407.87 287.636 406.718 289.004V301.748C406.718 301.928 406.682 302 406.502 302H403.946C403.802 302 403.73 301.928 403.73 301.748ZM437.267 284.144C442.343 284.144 445.475 288.032 445.475 293.216C445.475 298.688 442.091 302.36 437.267 302.36C431.471 302.36 428.987 297.68 428.987 293.252C428.987 288.176 432.227 284.144 437.267 284.144ZM437.123 286.736C434.099 286.736 432.011 289.328 432.011 293.18C432.011 296.852 433.919 299.768 437.339 299.768C439.895 299.768 442.415 297.752 442.415 293.288C442.415 289.94 440.867 286.736 437.123 286.736ZM448.692 284.504H450.996C451.212 284.504 451.248 284.576 451.32 284.756C451.464 285.188 451.572 286.448 451.608 287.24C452.868 285.512 455.1 284.144 457.404 284.144C457.584 284.144 457.656 284.18 457.656 284.396V286.988C457.656 287.168 457.62 287.204 457.404 287.204C454.92 287.168 452.652 288.392 451.752 289.832L451.716 301.784C451.716 301.964 451.644 302 451.5 302H448.944C448.764 302 448.692 301.928 448.692 301.748V289.328C448.692 287.816 448.62 285.728 448.512 284.72C448.512 284.576 448.548 284.504 448.692 284.504ZM467.729 287.096H465.389C465.245 287.096 465.173 287.024 465.173 286.844V284.72C465.173 284.576 465.245 284.504 465.389 284.504H467.729V283.208C467.729 281.12 468.017 279.752 468.557 278.672C469.493 276.872 471.041 275.828 473.273 275.828C474.029 275.828 474.533 275.9 474.929 276.08C475.109 276.116 475.109 276.224 475.109 276.368V278.492C475.109 278.636 475.037 278.708 474.893 278.672C474.497 278.528 473.993 278.492 473.633 278.492C471.905 278.492 470.717 279.428 470.717 282.884V284.504H474.173C474.317 284.504 474.389 284.576 474.389 284.684V286.844C474.389 287.024 474.317 287.06 474.173 287.096H470.717V301.748C470.717 301.892 470.681 302 470.501 302H467.945C467.801 302 467.729 301.928 467.729 301.748V287.096ZM483.482 284.144C488.558 284.144 491.69 288.032 491.69 293.216C491.69 298.688 488.306 302.36 483.482 302.36C477.686 302.36 475.202 297.68 475.202 293.252C475.202 288.176 478.442 284.144 483.482 284.144ZM483.338 286.736C480.314 286.736 478.226 289.328 478.226 293.18C478.226 296.852 480.134 299.768 483.554 299.768C486.11 299.768 488.63 297.752 488.63 293.288C488.63 289.94 487.082 286.736 483.338 286.736ZM494.907 298.364V276.404C494.907 276.224 494.979 276.188 495.159 276.188H497.679C497.859 276.188 497.895 276.26 497.895 276.404V298.112C497.895 299.516 498.471 299.84 499.335 299.84C499.587 299.84 499.731 299.804 500.055 299.732C500.163 299.732 500.199 299.804 500.199 299.948V301.82C500.199 302 500.163 302.036 500.019 302.108C499.695 302.252 499.119 302.36 498.363 302.36C496.599 302.36 494.907 301.748 494.907 298.364ZM510.682 302.36C505.678 302.36 501.79 299.336 501.79 293.396C501.79 288.104 505.714 284.144 511.582 284.144C512.59 284.144 513.166 284.252 513.85 284.36V276.404C513.85 276.224 513.922 276.188 514.066 276.188H516.658C516.838 276.188 516.874 276.26 516.874 276.368V299.048C516.874 299.552 516.874 300.164 516.946 300.776C516.946 300.92 516.91 300.956 516.766 301.028C514.714 302 512.698 302.36 510.682 302.36ZM513.85 299.264V287.096C513.274 286.844 512.41 286.736 511.51 286.736C507.406 286.736 504.85 289.508 504.85 293.252C504.85 297.932 507.802 299.732 510.97 299.732C511.906 299.732 513.022 299.624 513.85 299.264ZM531.001 293.612H523.153C523.117 297.032 525.097 299.732 529.165 299.732C530.749 299.732 532.261 299.444 533.665 298.76C533.773 298.688 533.845 298.76 533.845 298.904V300.956C533.845 301.172 533.773 301.244 533.665 301.316C532.441 301.928 530.857 302.36 528.589 302.36C522.361 302.36 520.129 297.788 520.129 293.396C520.129 288.356 523.081 284.144 528.085 284.144C533.233 284.144 535.105 288.32 535.105 291.38C535.105 292.28 535.033 292.928 534.961 293.252C534.961 293.36 534.853 293.468 534.709 293.468C534.169 293.576 532.585 293.612 531.001 293.612ZM523.189 291.38H529.885C531.649 291.38 532.081 291.344 532.189 291.308C532.225 291.2 532.225 291.02 532.225 290.912C532.225 289.616 531.361 286.628 527.977 286.628C524.989 286.628 523.513 288.968 523.189 291.38ZM538.216 284.504H540.52C540.736 284.504 540.772 284.576 540.844 284.756C540.988 285.188 541.096 286.448 541.132 287.24C542.392 285.512 544.624 284.144 546.928 284.144C547.108 284.144 547.18 284.18 547.18 284.396V286.988C547.18 287.168 547.144 287.204 546.928 287.204C544.444 287.168 542.176 288.392 541.276 289.832L541.24 301.784C541.24 301.964 541.168 302 541.024 302H538.468C538.288 302 538.216 301.928 538.216 301.748V289.328C538.216 287.816 538.144 285.728 538.036 284.72C538.036 284.576 538.072 284.504 538.216 284.504ZM556.929 301.712V284.756C556.929 284.576 557.001 284.504 557.181 284.504H559.737C559.881 284.504 559.953 284.54 559.953 284.72V301.748C559.953 301.928 559.917 302 559.701 302H557.217C557.037 302 556.929 301.928 556.929 301.712ZM558.441 281.048C557.325 281.048 556.641 280.292 556.641 279.212C556.641 278.132 557.397 277.376 558.477 277.376C559.629 277.376 560.277 278.168 560.277 279.212C560.277 280.292 559.557 281.048 558.441 281.048ZM564.475 301.748V288.572C564.475 287.348 564.403 285.332 564.331 284.72C564.331 284.576 564.367 284.504 564.547 284.504H566.779C566.959 284.504 567.031 284.576 567.103 284.72C567.211 285.044 567.247 285.728 567.319 286.52C568.903 284.936 570.739 284.144 572.827 284.144C575.383 284.144 578.695 285.404 578.695 291.092V301.748C578.695 301.928 578.623 302 578.443 302H575.923C575.743 302 575.671 301.928 575.671 301.712V291.38C575.671 288.644 574.483 286.808 571.963 286.808C570.127 286.808 568.615 287.636 567.463 289.004V301.748C567.463 301.928 567.427 302 567.247 302H564.691C564.547 302 564.475 301.928 564.475 301.748ZM588.869 284.504H591.713C591.857 284.504 591.929 284.576 591.965 284.684C594.953 292.604 596.429 296.708 596.933 298.328C598.085 295.016 599.597 290.876 601.793 284.684C601.865 284.576 601.937 284.504 602.081 284.504H604.637C604.817 284.504 604.853 284.612 604.781 284.756C602.117 292.568 598.409 301.784 594.989 309.488C594.917 309.632 594.809 309.704 594.593 309.74L591.893 309.956C591.713 309.956 591.713 309.848 591.785 309.668C592.829 307.472 594.161 304.556 595.349 301.712C595.421 301.568 595.421 301.46 595.349 301.244C594.485 299.084 590.885 290.336 588.689 284.72C588.617 284.576 588.725 284.504 588.869 284.504ZM614.242 284.144C619.318 284.144 622.45 288.032 622.45 293.216C622.45 298.688 619.066 302.36 614.242 302.36C608.446 302.36 605.962 297.68 605.962 293.252C605.962 288.176 609.202 284.144 614.242 284.144ZM614.098 286.736C611.074 286.736 608.986 289.328 608.986 293.18C608.986 296.852 610.894 299.768 614.314 299.768C616.87 299.768 619.39 297.752 619.39 293.288C619.39 289.94 617.842 286.736 614.098 286.736ZM639.599 284.72V298.184C639.599 300.092 639.707 300.992 639.815 301.784C639.815 301.928 639.779 302 639.599 302H637.295C637.115 302 637.079 301.964 637.007 301.82C636.899 301.424 636.827 300.776 636.791 300.272C635.279 301.82 633.371 302.36 631.571 302.36C628.511 302.36 625.631 300.812 625.631 295.592V284.72C625.631 284.54 625.703 284.504 625.883 284.504H628.439C628.583 284.504 628.619 284.576 628.619 284.72V295.232C628.619 298.004 629.915 299.696 632.435 299.696C634.163 299.696 635.531 299.048 636.611 297.86V284.72C636.611 284.576 636.683 284.504 636.863 284.504H639.383C639.599 284.504 639.599 284.576 639.599 284.72ZM644.146 284.504H646.45C646.666 284.504 646.702 284.576 646.774 284.756C646.918 285.188 647.026 286.448 647.062 287.24C648.322 285.512 650.554 284.144 652.858 284.144C653.038 284.144 653.11 284.18 653.11 284.396V286.988C653.11 287.168 653.074 287.204 652.858 287.204C650.374 287.168 648.106 288.392 647.206 289.832L647.17 301.784C647.17 301.964 647.098 302 646.954 302H644.398C644.218 302 644.146 301.928 644.146 301.748V289.328C644.146 287.816 644.074 285.728 643.966 284.72C643.966 284.576 644.002 284.504 644.146 284.504ZM242.864 321.188H245.384C245.564 321.188 245.636 321.188 245.636 321.404V329.864C246.788 329.396 248.084 329.144 249.524 329.144C254.492 329.144 257.732 332.708 257.732 337.568C257.732 344.048 252.836 347.36 247.76 347.36C245.96 347.36 244.376 347.144 242.828 346.64C242.684 346.604 242.612 346.46 242.612 346.316V321.404C242.612 321.224 242.684 321.188 242.864 321.188ZM254.672 337.82C254.672 334.148 252.512 331.772 249.056 331.772C247.508 331.772 246.536 332.024 245.636 332.384V344.48C246.32 344.696 247.04 344.768 248.012 344.768C251.468 344.768 254.672 342.464 254.672 337.82ZM260.986 329.504H263.29C263.506 329.504 263.542 329.576 263.614 329.756C263.758 330.188 263.866 331.448 263.902 332.24C265.162 330.512 267.394 329.144 269.698 329.144C269.878 329.144 269.95 329.18 269.95 329.396V331.988C269.95 332.168 269.914 332.204 269.698 332.204C267.214 332.168 264.946 333.392 264.046 334.832L264.01 346.784C264.01 346.964 263.938 347 263.794 347H261.238C261.058 347 260.986 346.928 260.986 346.748V334.328C260.986 332.816 260.914 330.728 260.806 329.72C260.806 329.576 260.842 329.504 260.986 329.504ZM279.208 329.144C284.284 329.144 287.416 333.032 287.416 338.216C287.416 343.688 284.032 347.36 279.208 347.36C273.412 347.36 270.928 342.68 270.928 338.252C270.928 333.176 274.168 329.144 279.208 329.144ZM279.064 331.736C276.04 331.736 273.952 334.328 273.952 338.18C273.952 341.852 275.86 344.768 279.28 344.768C281.836 344.768 284.356 342.752 284.356 338.288C284.356 334.94 282.808 331.736 279.064 331.736ZM308.262 347H305.418C305.202 347 305.13 346.928 305.094 346.748C302.43 337.208 301.746 334.22 301.35 332.528H301.314C300.666 335.408 299.37 339.8 297.318 346.748C297.246 346.964 297.138 347 296.958 347H294.186C293.898 347 293.826 346.928 293.79 346.748L289.11 329.756C289.038 329.612 289.11 329.504 289.29 329.504H291.99C292.098 329.504 292.206 329.54 292.242 329.684C294.906 339.584 295.518 342.896 295.77 344.156H295.842C296.13 342.932 296.778 339.944 299.838 329.756C299.874 329.576 299.91 329.504 300.09 329.504H303.006C303.15 329.504 303.222 329.576 303.258 329.72C306.174 340.16 306.678 342.788 306.966 344.192H307.038C307.434 342.5 307.974 339.44 310.782 329.684C310.818 329.576 310.89 329.504 311.034 329.504H313.554C313.698 329.504 313.77 329.576 313.734 329.72L308.586 346.784C308.514 346.928 308.478 347 308.262 347ZM326.02 332.672C325.012 332.06 323.356 331.628 321.844 331.628C319.468 331.628 318.676 332.78 318.676 333.86C318.676 334.94 319.324 335.696 322.024 336.776C325.66 338.18 327.136 339.656 327.136 342.212C327.136 345.524 324.436 347.36 320.692 347.36C318.712 347.36 316.912 346.928 315.868 346.316C315.76 346.244 315.688 346.172 315.688 345.992V343.58C315.688 343.4 315.796 343.328 315.904 343.4C317.344 344.408 319.18 344.84 320.764 344.84C323.068 344.84 324.184 343.832 324.184 342.5C324.184 341.168 323.392 340.376 320.908 339.404C317.308 338.036 315.796 336.56 315.796 334.004C315.796 331.412 317.992 329.144 321.916 329.144C323.896 329.144 325.372 329.504 326.128 329.936C326.308 330.008 326.308 330.152 326.308 330.296V332.492C326.308 332.672 326.2 332.78 326.02 332.672ZM340.016 338.612H332.168C332.132 342.032 334.112 344.732 338.18 344.732C339.764 344.732 341.276 344.444 342.68 343.76C342.788 343.688 342.86 343.76 342.86 343.904V345.956C342.86 346.172 342.788 346.244 342.68 346.316C341.456 346.928 339.872 347.36 337.604 347.36C331.376 347.36 329.144 342.788 329.144 338.396C329.144 333.356 332.096 329.144 337.1 329.144C342.248 329.144 344.12 333.32 344.12 336.38C344.12 337.28 344.048 337.928 343.976 338.252C343.976 338.36 343.868 338.468 343.724 338.468C343.184 338.576 341.6 338.612 340.016 338.612ZM332.204 336.38H338.9C340.664 336.38 341.096 336.344 341.204 336.308C341.24 336.2 341.24 336.02 341.24 335.912C341.24 334.616 340.376 331.628 336.992 331.628C334.004 331.628 332.528 333.968 332.204 336.38ZM347.231 329.504H349.535C349.751 329.504 349.787 329.576 349.859 329.756C350.003 330.188 350.111 331.448 350.147 332.24C351.407 330.512 353.639 329.144 355.943 329.144C356.123 329.144 356.195 329.18 356.195 329.396V331.988C356.195 332.168 356.159 332.204 355.943 332.204C353.459 332.168 351.191 333.392 350.291 334.832L350.255 346.784C350.255 346.964 350.183 347 350.039 347H347.483C347.303 347 347.231 346.928 347.231 346.748V334.328C347.231 332.816 347.159 330.728 347.051 329.72C347.051 329.576 347.087 329.504 347.231 329.504ZM359.254 330.044L359.29 321.404C359.29 321.26 359.326 321.188 359.506 321.188H361.99C362.134 321.188 362.17 321.26 362.134 321.368L361.666 330.044C361.666 330.224 361.558 330.224 361.45 330.224H359.47C359.326 330.224 359.254 330.152 359.254 330.044ZM374.239 332.672C373.231 332.06 371.575 331.628 370.063 331.628C367.687 331.628 366.895 332.78 366.895 333.86C366.895 334.94 367.543 335.696 370.243 336.776C373.879 338.18 375.355 339.656 375.355 342.212C375.355 345.524 372.655 347.36 368.911 347.36C366.931 347.36 365.131 346.928 364.087 346.316C363.979 346.244 363.907 346.172 363.907 345.992V343.58C363.907 343.4 364.015 343.328 364.123 343.4C365.563 344.408 367.399 344.84 368.983 344.84C371.287 344.84 372.403 343.832 372.403 342.5C372.403 341.168 371.611 340.376 369.127 339.404C365.527 338.036 364.015 336.56 364.015 334.004C364.015 331.412 366.211 329.144 370.135 329.144C372.115 329.144 373.591 329.504 374.347 329.936C374.527 330.008 374.527 330.152 374.527 330.296V332.492C374.527 332.672 374.419 332.78 374.239 332.672ZM393.728 344.66V346.496C393.728 346.64 393.692 346.784 393.512 346.856C392.684 347.216 391.784 347.36 390.812 347.36C388.184 347.36 386.6 346.1 386.6 342.644V332.096H384.152C383.936 332.06 383.9 331.988 383.9 331.808V329.756C383.9 329.576 383.972 329.504 384.152 329.504H386.6C386.636 328.172 386.78 325.688 386.924 324.896C386.96 324.752 387.032 324.68 387.176 324.644L389.624 324.248C389.768 324.212 389.84 324.248 389.84 324.392C389.732 325.652 389.624 327.74 389.624 329.504H393.44C393.584 329.504 393.656 329.576 393.656 329.756V331.88C393.656 332.024 393.584 332.096 393.44 332.096H389.624V342.212C389.624 343.868 390.236 344.804 391.82 344.804C392.36 344.804 392.9 344.732 393.512 344.516C393.62 344.48 393.728 344.48 393.728 344.66ZM403.231 329.144C408.307 329.144 411.439 333.032 411.439 338.216C411.439 343.688 408.055 347.36 403.231 347.36C397.435 347.36 394.951 342.68 394.951 338.252C394.951 333.176 398.191 329.144 403.231 329.144ZM403.087 331.736C400.063 331.736 397.975 334.328 397.975 338.18C397.975 341.852 399.883 344.768 403.303 344.768C405.859 344.768 408.379 342.752 408.379 338.288C408.379 334.94 406.831 331.736 403.087 331.736ZM421.957 329.144C427.033 329.144 430.165 333.032 430.165 338.216C430.165 343.688 426.781 347.36 421.957 347.36C416.161 347.36 413.677 342.68 413.677 338.252C413.677 333.176 416.917 329.144 421.957 329.144ZM421.813 331.736C418.789 331.736 416.701 334.328 416.701 338.18C416.701 341.852 418.609 344.768 422.029 344.768C424.585 344.768 427.105 342.752 427.105 338.288C427.105 334.94 425.557 331.736 421.813 331.736ZM433.381 343.364V321.404C433.381 321.224 433.453 321.188 433.633 321.188H436.153C436.333 321.188 436.369 321.26 436.369 321.404V343.112C436.369 344.516 436.945 344.84 437.809 344.84C438.061 344.84 438.205 344.804 438.529 344.732C438.637 344.732 438.673 344.804 438.673 344.948V346.82C438.673 347 438.637 347.036 438.493 347.108C438.169 347.252 437.593 347.36 436.837 347.36C435.073 347.36 433.381 346.748 433.381 343.364ZM441.777 321.188H444.297C444.477 321.188 444.549 321.188 444.549 321.404V329.864C445.701 329.396 446.997 329.144 448.437 329.144C453.405 329.144 456.645 332.708 456.645 337.568C456.645 344.048 451.749 347.36 446.673 347.36C444.873 347.36 443.289 347.144 441.741 346.64C441.597 346.604 441.525 346.46 441.525 346.316V321.404C441.525 321.224 441.597 321.188 441.777 321.188ZM453.585 337.82C453.585 334.148 451.425 331.772 447.969 331.772C446.421 331.772 445.449 332.024 444.549 332.384V344.48C445.233 344.696 445.953 344.768 446.925 344.768C450.381 344.768 453.585 342.464 453.585 337.82ZM469.323 344.3V338.648C468.819 338.576 468.027 338.504 466.947 338.504C463.455 338.504 461.763 339.692 461.763 341.708C461.763 343.328 462.879 344.912 466.047 344.912C467.199 344.912 468.279 344.732 469.323 344.3ZM472.239 335.912V343.94C472.239 344.552 472.239 345.092 472.311 345.668C472.311 345.74 472.311 345.776 472.239 345.812C469.647 347.036 467.595 347.36 465.507 347.36C461.691 347.36 458.811 345.488 458.811 341.708C458.811 337.892 462.375 336.2 466.839 336.2C468.171 336.2 468.927 336.236 469.323 336.272V335.408C469.323 334.292 468.783 331.808 465.255 331.808C463.527 331.808 461.943 332.204 460.683 332.888C460.575 332.924 460.431 332.888 460.431 332.708V330.512C460.431 330.368 460.503 330.296 460.611 330.224C462.015 329.54 463.815 329.144 465.723 329.144C470.331 329.144 472.239 332.168 472.239 335.912ZM476.726 329.504H479.03C479.246 329.504 479.282 329.576 479.354 329.756C479.498 330.188 479.606 331.448 479.642 332.24C480.902 330.512 483.134 329.144 485.438 329.144C485.618 329.144 485.69 329.18 485.69 329.396V331.988C485.69 332.168 485.654 332.204 485.438 332.204C482.954 332.168 480.686 333.392 479.786 334.832L479.75 346.784C479.75 346.964 479.678 347 479.534 347H476.978C476.798 347 476.726 346.928 476.726 346.748V334.328C476.726 332.816 476.654 330.728 476.546 329.72C476.546 329.576 476.582 329.504 476.726 329.504ZM486.852 347.36C485.7 347.36 484.908 346.604 484.908 345.38C484.908 344.264 485.7 343.436 486.852 343.436C488.004 343.436 488.76 344.264 488.76 345.38C488.76 346.568 488.04 347.36 486.852 347.36ZM160.404 401.748V380.94H152.736C152.592 380.94 152.52 380.868 152.556 380.688L152.952 378.276C152.988 378.132 153.06 378.06 153.24 378.06H170.988C171.168 378.06 171.24 378.132 171.276 378.312V380.688C171.312 380.832 171.24 380.94 171.06 380.94H163.428V401.712C163.428 401.928 163.356 402 163.176 402H160.692C160.512 402 160.404 401.928 160.404 401.748ZM175.956 388.788V401.784C175.956 401.964 175.92 402 175.74 402H173.184C173.004 402 172.968 401.928 172.968 401.748V376.404C172.968 376.26 172.968 376.188 173.184 376.188H175.74C175.92 376.188 175.956 376.224 175.956 376.368V386.232C177.468 384.864 179.196 384.144 181.32 384.144C183.84 384.144 187.152 385.404 187.152 391.092V401.748C187.152 401.928 187.08 402 186.9 402H184.416C184.236 402 184.164 401.928 184.164 401.712V391.416C184.164 388.644 182.94 386.808 180.42 386.808C178.692 386.808 177.108 387.528 175.956 388.788ZM201.304 393.612H193.456C193.42 397.032 195.4 399.732 199.468 399.732C201.052 399.732 202.564 399.444 203.968 398.76C204.076 398.688 204.148 398.76 204.148 398.904V400.956C204.148 401.172 204.076 401.244 203.968 401.316C202.744 401.928 201.16 402.36 198.892 402.36C192.664 402.36 190.432 397.788 190.432 393.396C190.432 388.356 193.384 384.144 198.388 384.144C203.536 384.144 205.408 388.32 205.408 391.38C205.408 392.28 205.336 392.928 205.264 393.252C205.264 393.36 205.156 393.468 205.012 393.468C204.472 393.576 202.888 393.612 201.304 393.612ZM193.492 391.38H200.188C201.952 391.38 202.384 391.344 202.492 391.308C202.528 391.2 202.528 391.02 202.528 390.912C202.528 389.616 201.664 386.628 198.28 386.628C195.292 386.628 193.816 388.968 193.492 391.38ZM208.52 401.748V388.572C208.52 387.348 208.448 385.332 208.376 384.72C208.376 384.576 208.412 384.504 208.592 384.504H210.824C211.004 384.504 211.076 384.576 211.148 384.72C211.256 385.044 211.292 385.728 211.364 386.52C212.948 384.936 214.784 384.144 216.872 384.144C219.428 384.144 222.74 385.404 222.74 391.092V401.748C222.74 401.928 222.668 402 222.488 402H219.968C219.788 402 219.716 401.928 219.716 401.712V391.38C219.716 388.644 218.528 386.808 216.008 386.808C214.172 386.808 212.66 387.636 211.508 389.004V401.748C211.508 401.928 211.472 402 211.292 402H208.736C208.592 402 208.52 401.928 208.52 401.748ZM242.669 402.36C237.665 402.36 233.777 399.336 233.777 393.396C233.777 388.104 237.701 384.144 243.569 384.144C244.577 384.144 245.153 384.252 245.837 384.36V376.404C245.837 376.224 245.909 376.188 246.053 376.188H248.645C248.825 376.188 248.861 376.26 248.861 376.368V399.048C248.861 399.552 248.861 400.164 248.933 400.776C248.933 400.92 248.897 400.956 248.753 401.028C246.701 402 244.685 402.36 242.669 402.36ZM245.837 399.264V387.096C245.261 386.844 244.397 386.736 243.497 386.736C239.393 386.736 236.837 389.508 236.837 393.252C236.837 397.932 239.789 399.732 242.957 399.732C243.893 399.732 245.009 399.624 245.837 399.264ZM260.396 384.144C265.472 384.144 268.604 388.032 268.604 393.216C268.604 398.688 265.22 402.36 260.396 402.36C254.6 402.36 252.116 397.68 252.116 393.252C252.116 388.176 255.356 384.144 260.396 384.144ZM260.252 386.736C257.228 386.736 255.14 389.328 255.14 393.18C255.14 396.852 257.048 399.768 260.468 399.768C263.024 399.768 265.544 397.752 265.544 393.288C265.544 389.94 263.996 386.736 260.252 386.736ZM285.752 384.72V398.184C285.752 400.092 285.86 400.992 285.968 401.784C285.968 401.928 285.932 402 285.752 402H283.448C283.268 402 283.232 401.964 283.16 401.82C283.052 401.424 282.98 400.776 282.944 400.272C281.432 401.82 279.524 402.36 277.724 402.36C274.664 402.36 271.784 400.812 271.784 395.592V384.72C271.784 384.54 271.856 384.504 272.036 384.504H274.592C274.736 384.504 274.772 384.576 274.772 384.72V395.232C274.772 398.004 276.068 399.696 278.588 399.696C280.316 399.696 281.684 399.048 282.764 397.86V384.72C282.764 384.576 282.836 384.504 283.016 384.504H285.536C285.752 384.504 285.752 384.576 285.752 384.72ZM290.552 376.188H293.072C293.252 376.188 293.324 376.188 293.324 376.404V384.864C294.476 384.396 295.772 384.144 297.212 384.144C302.18 384.144 305.42 387.708 305.42 392.568C305.42 399.048 300.524 402.36 295.448 402.36C293.648 402.36 292.064 402.144 290.516 401.64C290.372 401.604 290.3 401.46 290.3 401.316V376.404C290.3 376.224 290.372 376.188 290.552 376.188ZM302.36 392.82C302.36 389.148 300.2 386.772 296.744 386.772C295.196 386.772 294.224 387.024 293.324 387.384V399.48C294.008 399.696 294.728 399.768 295.7 399.768C299.156 399.768 302.36 397.464 302.36 392.82ZM308.674 398.364V376.404C308.674 376.224 308.746 376.188 308.926 376.188H311.446C311.626 376.188 311.662 376.26 311.662 376.404V398.112C311.662 399.516 312.238 399.84 313.102 399.84C313.354 399.84 313.498 399.804 313.822 399.732C313.93 399.732 313.966 399.804 313.966 399.948V401.82C313.966 402 313.93 402.036 313.786 402.108C313.462 402.252 312.886 402.36 312.13 402.36C310.366 402.36 308.674 401.748 308.674 398.364ZM326.43 393.612H318.582C318.546 397.032 320.526 399.732 324.594 399.732C326.178 399.732 327.69 399.444 329.094 398.76C329.202 398.688 329.274 398.76 329.274 398.904V400.956C329.274 401.172 329.202 401.244 329.094 401.316C327.87 401.928 326.286 402.36 324.018 402.36C317.79 402.36 315.558 397.788 315.558 393.396C315.558 388.356 318.51 384.144 323.514 384.144C328.662 384.144 330.534 388.32 330.534 391.38C330.534 392.28 330.462 392.928 330.39 393.252C330.39 393.36 330.282 393.468 330.138 393.468C329.598 393.576 328.014 393.612 326.43 393.612ZM318.618 391.38H325.314C327.078 391.38 327.51 391.344 327.618 391.308C327.654 391.2 327.654 391.02 327.654 390.912C327.654 389.616 326.79 386.628 323.406 386.628C320.418 386.628 318.942 388.968 318.618 391.38ZM341.44 394.224H333.376C333.232 394.224 333.196 394.188 333.196 394.044V391.776C333.196 391.668 333.232 391.596 333.376 391.596H341.44C341.548 391.596 341.62 391.632 341.62 391.776V394.044C341.62 394.188 341.584 394.224 341.44 394.224ZM357.25 399.3V401.532C357.25 401.676 357.25 401.748 357.106 401.784C355.918 402.252 354.514 402.36 353.182 402.36C347.314 402.36 344.29 398.184 344.29 393.324C344.29 388.068 348.034 384.144 353.686 384.144C355.522 384.144 356.53 384.36 357.106 384.612C357.25 384.684 357.25 384.756 357.25 384.936V387.204C357.25 387.384 357.142 387.384 356.998 387.348C356.098 386.988 355.162 386.808 353.686 386.808C349.978 386.808 347.35 389.292 347.35 393.216C347.35 397.536 350.338 399.66 353.686 399.66C355.018 399.66 356.134 399.516 357.034 399.156C357.214 399.12 357.25 399.192 357.25 399.3ZM360.338 398.364V376.404C360.338 376.224 360.41 376.188 360.59 376.188H363.11C363.29 376.188 363.326 376.26 363.326 376.404V398.112C363.326 399.516 363.902 399.84 364.766 399.84C365.018 399.84 365.162 399.804 365.486 399.732C365.594 399.732 365.63 399.804 365.63 399.948V401.82C365.63 402 365.594 402.036 365.45 402.108C365.126 402.252 364.55 402.36 363.794 402.36C362.03 402.36 360.338 401.748 360.338 398.364ZM368.482 401.712V384.756C368.482 384.576 368.554 384.504 368.734 384.504H371.29C371.434 384.504 371.506 384.54 371.506 384.72V401.748C371.506 401.928 371.47 402 371.254 402H368.77C368.59 402 368.482 401.928 368.482 401.712ZM369.994 381.048C368.878 381.048 368.194 380.292 368.194 379.212C368.194 378.132 368.95 377.376 370.03 377.376C371.182 377.376 371.83 378.168 371.83 379.212C371.83 380.292 371.11 381.048 369.994 381.048ZM387.728 399.3V401.532C387.728 401.676 387.728 401.748 387.584 401.784C386.396 402.252 384.992 402.36 383.66 402.36C377.792 402.36 374.768 398.184 374.768 393.324C374.768 388.068 378.512 384.144 384.164 384.144C386 384.144 387.008 384.36 387.584 384.612C387.728 384.684 387.728 384.756 387.728 384.936V387.204C387.728 387.384 387.62 387.384 387.476 387.348C386.576 386.988 385.64 386.808 384.164 386.808C380.456 386.808 377.828 389.292 377.828 393.216C377.828 397.536 380.816 399.66 384.164 399.66C385.496 399.66 386.612 399.516 387.512 399.156C387.692 399.12 387.728 399.192 387.728 399.3ZM401.76 384.504H404.64C404.82 384.504 404.892 384.648 404.748 384.792C403.74 385.908 398.304 391.164 396.972 392.46C396.936 392.496 396.972 392.568 396.972 392.604C399.312 395.052 403.236 399.12 405.864 401.748C405.972 401.856 405.9 402 405.72 402H402.3C402.12 402 402.048 401.928 401.94 401.82C400.068 399.912 395.532 395.16 393.804 393.288V401.748C393.804 401.928 393.768 402 393.588 402H391.068C390.852 402 390.816 401.928 390.816 401.748V376.404C390.816 376.26 390.852 376.188 391.068 376.188H393.588C393.732 376.188 393.804 376.26 393.804 376.404V392.532C395.496 390.84 400.464 385.692 401.4 384.684C401.544 384.54 401.616 384.504 401.76 384.504ZM422.326 399.66V401.496C422.326 401.64 422.29 401.784 422.11 401.856C421.282 402.216 420.382 402.36 419.41 402.36C416.782 402.36 415.198 401.1 415.198 397.644V387.096H412.75C412.534 387.06 412.498 386.988 412.498 386.808V384.756C412.498 384.576 412.57 384.504 412.75 384.504H415.198C415.234 383.172 415.378 380.688 415.522 379.896C415.558 379.752 415.63 379.68 415.774 379.644L418.222 379.248C418.366 379.212 418.438 379.248 418.438 379.392C418.33 380.652 418.222 382.74 418.222 384.504H422.038C422.182 384.504 422.254 384.576 422.254 384.756V386.88C422.254 387.024 422.182 387.096 422.038 387.096H418.222V397.212C418.222 398.868 418.834 399.804 420.418 399.804C420.958 399.804 421.498 399.732 422.11 399.516C422.218 399.48 422.326 399.48 422.326 399.66ZM428.043 388.788V401.784C428.043 401.964 428.007 402 427.827 402H425.307C425.127 402 425.055 401.928 425.055 401.748V376.404C425.055 376.26 425.091 376.188 425.271 376.188H427.863C428.007 376.188 428.043 376.224 428.043 376.368L428.079 386.232C429.555 384.864 431.283 384.144 433.407 384.144C435.963 384.144 439.275 385.404 439.275 391.092V401.748C439.275 401.928 439.203 402 439.023 402H436.503C436.323 402 436.251 401.928 436.251 401.712V391.416C436.251 388.644 435.063 386.808 432.543 386.808C430.779 386.808 429.195 387.528 428.043 388.788ZM453.428 393.612H445.58C445.544 397.032 447.524 399.732 451.592 399.732C453.176 399.732 454.688 399.444 456.092 398.76C456.2 398.688 456.272 398.76 456.272 398.904V400.956C456.272 401.172 456.2 401.244 456.092 401.316C454.868 401.928 453.284 402.36 451.016 402.36C444.788 402.36 442.556 397.788 442.556 393.396C442.556 388.356 445.508 384.144 450.512 384.144C455.66 384.144 457.532 388.32 457.532 391.38C457.532 392.28 457.46 392.928 457.388 393.252C457.388 393.36 457.28 393.468 457.136 393.468C456.596 393.576 455.012 393.612 453.428 393.612ZM445.616 391.38H452.312C454.076 391.38 454.508 391.344 454.616 391.308C454.652 391.2 454.652 391.02 454.652 390.912C454.652 389.616 453.788 386.628 450.404 386.628C447.416 386.628 445.94 388.968 445.616 391.38ZM469.659 402.36C468.111 402.36 467.031 401.352 467.031 399.66C467.031 398.112 468.111 397.032 469.659 397.032C471.243 397.032 472.323 398.148 472.323 399.66C472.323 401.28 471.315 402.36 469.659 402.36ZM485.61 394.116H478.302C478.41 396.636 480.066 398.652 483.738 398.652C485.358 398.652 486.834 398.364 488.202 397.788C488.31 397.716 488.418 397.752 488.418 397.932V400.92C488.418 401.136 488.346 401.244 488.202 401.316C486.834 401.964 485.25 402.36 482.802 402.36C476.25 402.36 473.91 397.752 473.91 393.324C473.91 388.32 476.934 383.892 482.37 383.892C487.698 383.892 489.75 388.068 489.75 391.488C489.75 392.496 489.714 393.324 489.606 393.72C489.57 393.864 489.498 393.936 489.318 393.972C488.814 394.08 487.374 394.116 485.61 394.116ZM478.302 391.02H483.666C485.034 391.02 485.502 391.02 485.646 390.984C485.646 390.876 485.646 390.732 485.646 390.696C485.646 389.652 484.926 387.348 482.19 387.348C479.706 387.348 478.59 389.256 478.302 391.02ZM495.932 393.18L490.532 384.576C490.424 384.432 490.46 384.252 490.712 384.252H495.032C495.284 384.252 495.356 384.288 495.464 384.504L498.884 390.732H498.956L502.556 384.432C502.664 384.252 502.7 384.252 502.88 384.252H506.696C506.912 384.252 506.984 384.36 506.876 384.54C505.616 386.556 502.844 390.984 501.44 392.964C502.988 395.376 505.976 399.876 507.236 401.712C507.38 401.856 507.308 402 507.056 402H502.628C502.412 402 502.268 401.892 502.16 401.712L498.56 395.448H498.524L494.816 401.784C494.744 401.928 494.672 402 494.42 402H490.568C490.388 402 490.28 401.82 490.388 401.676C491.9 399.408 494.384 395.448 495.932 393.18ZM519.3 394.116H511.992C512.1 396.636 513.756 398.652 517.428 398.652C519.048 398.652 520.524 398.364 521.892 397.788C522 397.716 522.108 397.752 522.108 397.932V400.92C522.108 401.136 522.036 401.244 521.892 401.316C520.524 401.964 518.94 402.36 516.492 402.36C509.94 402.36 507.6 397.752 507.6 393.324C507.6 388.32 510.624 383.892 516.06 383.892C521.388 383.892 523.44 388.068 523.44 391.488C523.44 392.496 523.404 393.324 523.296 393.72C523.26 393.864 523.188 393.936 523.008 393.972C522.504 394.08 521.064 394.116 519.3 394.116ZM511.992 391.02H517.356C518.724 391.02 519.192 391.02 519.336 390.984C519.336 390.876 519.336 390.732 519.336 390.696C519.336 389.652 518.616 387.348 515.88 387.348C513.396 387.348 512.28 389.256 511.992 391.02ZM544.445 401.676V384.504C544.445 384.324 544.553 384.252 544.733 384.252H548.549C548.765 384.252 548.837 384.288 548.837 384.504V401.712C548.837 401.928 548.765 402 548.513 402H544.805C544.553 402 544.445 401.892 544.445 401.676ZM546.641 381.804C545.201 381.804 544.229 380.832 544.229 379.392C544.229 377.952 545.273 376.944 546.677 376.944C548.153 376.944 549.089 377.988 549.089 379.392C549.089 380.832 548.117 381.804 546.641 381.804ZM534.293 387.888H532.097C531.917 387.888 531.881 387.816 531.881 387.636V384.468C531.881 384.288 531.953 384.252 532.097 384.252H534.293V383.1C534.293 381.552 534.545 380.184 535.085 379.104C535.985 377.16 537.749 376.044 540.377 376.044C541.349 376.044 541.817 376.116 542.177 376.26C542.357 376.332 542.393 376.44 542.393 376.62V379.752C542.393 379.896 542.321 380.04 542.141 379.968C541.709 379.824 541.313 379.788 540.881 379.788C539.513 379.788 538.649 380.544 538.649 382.92V384.252H541.817C542.069 384.252 542.105 384.324 542.105 384.468V387.636C542.105 387.816 542.033 387.852 541.817 387.888H538.649V401.712C538.649 401.892 538.613 402 538.325 402H534.581C534.365 402 534.293 401.892 534.293 401.712V387.888ZM552.799 397.716V376.656C552.799 376.476 552.907 376.368 553.123 376.368H556.831C557.047 376.368 557.155 376.476 557.155 376.656V397.32C557.155 398.436 557.551 398.796 558.415 398.796C558.703 398.796 558.775 398.796 559.099 398.76C559.207 398.724 559.243 398.796 559.243 398.976V401.676C559.243 401.928 559.207 401.964 559.027 402.072C558.631 402.252 557.983 402.36 556.975 402.36C554.671 402.36 552.799 401.496 552.799 397.716ZM572.37 394.116H565.062C565.17 396.636 566.826 398.652 570.498 398.652C572.118 398.652 573.594 398.364 574.962 397.788C575.07 397.716 575.178 397.752 575.178 397.932V400.92C575.178 401.136 575.106 401.244 574.962 401.316C573.594 401.964 572.01 402.36 569.562 402.36C563.01 402.36 560.67 397.752 560.67 393.324C560.67 388.32 563.694 383.892 569.13 383.892C574.458 383.892 576.51 388.068 576.51 391.488C576.51 392.496 576.474 393.324 576.366 393.72C576.33 393.864 576.258 393.936 576.078 393.972C575.574 394.08 574.134 394.116 572.37 394.116ZM565.062 391.02H570.426C571.794 391.02 572.262 391.02 572.406 390.984C572.406 390.876 572.406 390.732 572.406 390.696C572.406 389.652 571.686 387.348 568.95 387.348C566.466 387.348 565.35 389.256 565.062 391.02Z"
       fill="black"
       id="path20" />
    <text
       xml:space="preserve"
       style="fill:#000000"
       x="294.48367"
       y="159.95818"
       id="text24"><tspan
         id="tspan24"
         x="294.48367"
         y="159.95818">Adobe_Acrobat.clientsetup.exe</tspan></text>
  </g>
  <defs
     id="defs24">
    <filter
       id="filter0_d_676_36"
       x="228"
       y="117"
       width="379.767"
       height="82.97"
       filterUnits="userSpaceOnUse"
       color-interpolation-filters="sRGB">
      <feFlood
         flood-opacity="0"
         result="BackgroundImageFix"
         id="feFlood20" />
      <feColorMatrix
         in="SourceAlpha"
         type="matrix"
         values="0 0 0 0 0 0 0 0 0 0 0 0 0 0 0 0 0 0 127 0"
         result="hardAlpha"
         id="feColorMatrix20" />
      <feOffset
         dy="4"
         id="feOffset20" />
      <feGaussianBlur
         stdDeviation="2"
         id="feGaussianBlur20" />
      <feComposite
         in2="hardAlpha"
         operator="out"
         id="feComposite20" />
      <feColorMatrix
         type="matrix"
         values="0 0 0 0 0 0 0 0 0 0 0 0 0 0 0 0 0 0 0.25 0"
         id="feColorMatrix21" />
      <feBlend
         mode="normal"
         in2="BackgroundImageFix"
         result="effect1_dropShadow_676_36"
         id="feBlend21" />
      <feBlend
         mode="normal"
         in="SourceGraphic"
         in2="effect1_dropShadow_676_36"
         result="shape"
         id="feBlend22" />
    </filter>
    <filter
       id="filter1_d_676_36"
       x="370"
       y="163"
       width="44.8936"
       height="62.595"
       filterUnits="userSpaceOnUse"
       color-interpolation-filters="sRGB">
      <feFlood
         flood-opacity="0"
         result="BackgroundImageFix"
         id="feFlood22" />
      <feColorMatrix
         in="SourceAlpha"
         type="matrix"
         values="0 0 0 0 0 0 0 0 0 0 0 0 0 0 0 0 0 0 127 0"
         result="hardAlpha"
         id="feColorMatrix22" />
      <feOffset
         dy="4"
         id="feOffset22" />
      <feGaussianBlur
         stdDeviation="2"
         id="feGaussianBlur22" />
      <feComposite
         in2="hardAlpha"
         operator="out"
         id="feComposite22" />
      <feColorMatrix
         type="matrix"
         values="0 0 0 0 0 0 0 0 0 0 0 0 0 0 0 0 0 0 0.25 0"
         id="feColorMatrix23" />
      <feBlend
         mode="normal"
         in2="BackgroundImageFix"
         result="effect1_dropShadow_676_36"
         id="feBlend23" />
      <feBlend
         mode="normal"
         in="SourceGraphic"
         in2="effect1_dropShadow_676_36"
         result="shape"
         id="feBlend24" />
    </filter>
    <clipPath
       id="clip0_676_36">
      <rect
         width="730"
         height="512"
         fill="white"
         id="rect24" />
    </clipPath>
  </defs>
</svg>
